<svg id="Layer_1" data-name="Layer 1" xmlns="http://www.w3.org/2000/svg" viewBox="0 0 204.84 77.99"><title>logo_mobile_eu</title><path d="M105.05,58.63l2.44,2.45-1.12,1.12a7.25,7.25,0,0,1-2.82,1.88,10.92,10.92,0,0,1-3.38.76A9.39,9.39,0,0,1,94,62.2a8.33,8.33,0,0,1-1.88-2.81A10.85,10.85,0,0,1,91.52,56a8.87,8.87,0,0,1,.56-3.19A7.48,7.48,0,0,1,94,50a8.27,8.27,0,0,1,2.82-1.88,10.51,10.51,0,0,1,6.77,0A7.48,7.48,0,0,1,106.37,50l1.12,1.13L97.72,60.7a6.13,6.13,0,0,0,3.2.56,5.18,5.18,0,0,0,2.82-1.5Zm-8.64-6.39A4.83,4.83,0,0,0,94.9,56a5,5,0,0,0,.57,2.26L97,56.75,99,54.69l2.07-2.07a11.58,11.58,0,0,0,1.5-1.5,4.65,4.65,0,0,0-3.2-.57A6.7,6.7,0,0,0,96.41,52.24Z" fill="#3b66af"/><path d="M126.29,47.17v8.64a7.45,7.45,0,0,1-.75,3.39A7.64,7.64,0,0,1,123.66,62a7.55,7.55,0,0,1-2.82,1.88,11.19,11.19,0,0,1-3.39.75,9.32,9.32,0,0,1-6.2-2.63,7.64,7.64,0,0,1-1.88-2.82,11.19,11.19,0,0,1-.75-3.39V47.17H112v8.64a6.64,6.64,0,0,0,.38,2.07,4.32,4.32,0,0,0,1.13,1.69,4.39,4.39,0,0,0,1.69,1.13,5.8,5.8,0,0,0,4.13,0,4.42,4.42,0,0,0,1.7-1.13,4.29,4.29,0,0,0,1.12-1.69,6.64,6.64,0,0,0,.38-2.07V47.17Z" fill="#3b66af"/><path d="M138.5,47.17v3.38h-1.69a8,8,0,0,0-2.07.38,4.47,4.47,0,0,0-1.69,1.13,4.29,4.29,0,0,0-1.12,1.69,6.63,6.63,0,0,0-.38,2.06v8.84H128V55.81a6.93,6.93,0,0,1,.75-3.38,8.64,8.64,0,0,1,4.7-4.7,11.13,11.13,0,0,1,3.38-.75h1.69Z" fill="#3b66af"/><path d="M138.69,56a6.48,6.48,0,0,1,.75-3.38,8.64,8.64,0,0,1,4.7-4.7,11.19,11.19,0,0,1,3.38-.75,6.49,6.49,0,0,1,3.39.75,7.52,7.52,0,0,1,2.81,1.88,7.25,7.25,0,0,1,1.88,2.82,10.86,10.86,0,0,1,.76,3.38,7.33,7.33,0,0,1-.76,3.39,8.69,8.69,0,0,1-4.69,4.69,10.92,10.92,0,0,1-3.39.76,9.39,9.39,0,0,1-6.2-2.64,7.52,7.52,0,0,1-1.88-2.81A11.19,11.19,0,0,1,138.69,56Zm3.57,0a6.7,6.7,0,0,0,.38,2.07,4.48,4.48,0,0,0,1.12,1.69,4.54,4.54,0,0,0,1.7,1.13,5.95,5.95,0,0,0,4.13,0,4.51,4.51,0,0,0,1.69-1.13,4.39,4.39,0,0,0,1.13-1.69,5.8,5.8,0,0,0,0-4.13,4.42,4.42,0,0,0-1.13-1.7,4.36,4.36,0,0,0-1.69-1.12,5.8,5.8,0,0,0-4.13,0,4.39,4.39,0,0,0-1.7,1.12,4.5,4.5,0,0,0-1.12,1.7A4,4,0,0,0,142.26,56Z" fill="#3b66af"/><path d="M166.13,47.36a6.48,6.48,0,0,1,3.38.75,8.64,8.64,0,0,1,4.7,4.7,11.13,11.13,0,0,1,.75,3.38,7.38,7.38,0,0,1-.75,3.38,7.48,7.48,0,0,1-1.88,2.82,7.36,7.36,0,0,1-2.82,1.88,10.84,10.84,0,0,1-3.38.75h-5.26v7h-3.39V56.19a6.36,6.36,0,0,1,.76-3.38A7.34,7.34,0,0,1,160.11,50a7.64,7.64,0,0,1,2.82-1.88A6.23,6.23,0,0,1,166.13,47.36Zm2.07,13.53a4.59,4.59,0,0,0,1.69-1.13A4.36,4.36,0,0,0,171,58.07a5.8,5.8,0,0,0,0-4.13,4.39,4.39,0,0,0-1.12-1.7,4.43,4.43,0,0,0-1.69-1.12,6.75,6.75,0,0,0-2.07-.38,7.93,7.93,0,0,0-2.07.38,4.36,4.36,0,0,0-1.69,1.12,4.54,4.54,0,0,0-1.13,1.7,6.64,6.64,0,0,0-.37,2.06v5.26h5.26A3.79,3.79,0,0,0,168.2,60.89Z" fill="#3b66af"/><path d="M189.81,58.63l2.44,2.45-1.13,1.12a7.25,7.25,0,0,1-2.82,1.88,10.79,10.79,0,0,1-3.38.76,9.39,9.39,0,0,1-6.2-2.64,8.33,8.33,0,0,1-1.88-2.81,10.56,10.56,0,0,1-.56-3.39,8.66,8.66,0,0,1,.56-3.19A7.48,7.48,0,0,1,178.72,50a8.27,8.27,0,0,1,2.82-1.88,10.48,10.48,0,0,1,6.76,0A7.48,7.48,0,0,1,191.12,50l1.13,1.13-9.77,9.77a6.11,6.11,0,0,0,3.19.56,5.18,5.18,0,0,0,2.82-1.5Zm-8.65-6.39a4.82,4.82,0,0,0-1.5,3.76,5.09,5.09,0,0,0,.56,2.26l1.51-1.51,2.06-2.06,2.07-2.07a11,11,0,0,0,1.5-1.5,4.62,4.62,0,0,0-3.19-.57A6.68,6.68,0,0,0,181.16,52.24Z" fill="#3b66af"/><path d="M148.65,24.24c-2.07,5.08.94,12,7.14,12.78,3,.38,5.08.19,6.77-1.13,0,4.89-4.7,6.77-8.08,4-.38.38-3.2,3.2-3.57,3.76,6.76,6,16.16,1.31,16.35-6.2,0-2.63.37-8.27,0-11.65C165.75,16.16,152.22,15,148.65,24.24ZM162,29.32c-2.44,6.2-11.27,2.44-8.83-3.2S164.44,23.12,162,29.32ZM138.13,18a11.57,11.57,0,0,0-9.78,3.2c-5.63,6.76,0,19.16,11.09,15-.75-1.88-.94-2.26-1.69-4.32-7.7,1.88-8.46-8.65-2.44-9,5.26-.38,5.45,3.94,5.45,8.45v5.45a41.68,41.68,0,0,0,4.88,0c0-1.88.19-4.13.19-5.63C145.83,23.87,143.76,19.17,138.13,18ZM84.76,22c0,4.32,0,8.08.56,9.58,1.31,4.32,7.14,5.64,11.09,5.64s6.2-.19,6.2-.19v-4.7H96c-1.5,0-5.07-.56-5.64-3A19.23,19.23,0,0,1,90.21,25h10.71V19.73H90V14.28H102.8V9.21H84.57C84.76,9.21,84.57,16,84.76,22Zm36.08-1.51c-2.63-2.25-5.08-2.81-10.71-2.81-2.64,0-4.51.18-4.51.18v18.8h4.88V23.12s6.2-.76,7.52,2.25c.75,1.69.56,3.57.56,5.64v5.64h5.26V31.2C123.66,27.81,124,23.3,120.84,20.48Zm52.62-9.77c-4.14,0-3.76,5.08,0,5.26C176.65,16,177.22,10.71,173.46,10.71Zm17.85,20.11c-3,2.82-7.52.56-7.52-2.82.19-4.51,4.14-6.2,7.52-3.38,1.13-1.13,2.82-2.26,3.38-3.95-6.2-5.45-16.35-2.07-16.16,7.33,0,8.08,9.59,13.16,16.54,6.77A25.51,25.51,0,0,0,191.31,30.82ZM170.83,37h5.07V18.23h-5.07Z" fill="#3b66af" fill-rule="evenodd"/><path d="M204.84,12.59a6.26,6.26,0,0,1-6.2,6.2,6.11,6.11,0,1,1,.19-12.21A5.82,5.82,0,0,1,204.84,12.59Zm-10.71,0a4.51,4.51,0,1,0,9,0,4.51,4.51,0,1,0-9,0Zm3.76,3h-1.51V9.77a7.78,7.78,0,0,1,2.45-.19,5.32,5.32,0,0,1,2.25.38c.38.19.57.56.57,1.32a1.59,1.59,0,0,1-1.32,1.31h0a2,2,0,0,1,1.13,1.5c.19.76.37,1.13.37,1.32h-1.69a2.26,2.26,0,0,1-.37-1.32c-.19-.56-.38-.94-1.13-.94h-.56V15.6Zm0-3.38h.56c.75,0,1.32-.19,1.32-.76s-.38-.75-1.13-.75h-.75Z" fill="#3b66af"/><path d="M47,30.07a40.69,40.69,0,0,0-.37,7.33c0,3,.37,7.14.37,7.14s-.37.37-.56,0c-.57-1.13-.75-2.26-1.88-3-2.07-1.69-5.45-2.07-8.65-2.07V57.13c9,0,12,2.63,19.74,2.44,2.82-.18,6-1.31,7.33-3.19,2.06-3,1.88-8.83-.76-10.53-2.81-1.87-8.64-1.31-8.08,3a2.75,2.75,0,0,1,1.51,2.82,2.36,2.36,0,0,1-3.2,1.88c-3-.94-3.19-4.32-2.63-7.14C50.93,41,59.2,38.9,64.08,42.1a13.79,13.79,0,0,1,3.57,3.75,16.13,16.13,0,0,1,1.13,3.57c.19.19.19-.18.19-.37,7-27.25-19.17-47.73-43.22-38A30.5,30.5,0,0,0,18,15.6a63.85,63.85,0,0,0,13.16.94,87.21,87.21,0,0,0,10.52-1.13c1.5-.56,2.26-1.69,4-1.69,3.57,0,6.95,2.82,9,5.45a13.36,13.36,0,0,1,2.25,4.32c.19.94-.19,1.88-.75,1.88-2.07.19-3.38-3-6.77-4.13-3.94-1.32-7.7-.38-13.53-.19V35c5.27.19,8.27-.75,10.15-3.75l.38-1.13S47.17,29.69,47,30.07ZM6.2,46A30,30,0,0,0,13,60.14a20.63,20.63,0,0,1,8.27-2.45V21.42c-4.33-.18-5.08-.94-7.9-1.31C8.27,24.81,4.51,36.27,6.2,46Zm17.48-24.8V57.13h3.57V21.24ZM35.33,62c-7.7,0-13.53.37-18.42,2.06,10.34,10.15,31,10.34,41.16.38C51.12,66,43.22,62,35.33,62Z" fill="#3b66af" fill-rule="evenodd"/><path d="M35,7.71c-.56-.57-1.12-1.32-1.69-1.88a12.71,12.71,0,0,0-2.44.37c.38-.75.75-1.69,1.13-2.44C31.57,3,31,2.26,30.63,1.5c.94,0,1.88.38,2.82.38C34.2,1.32,34.77.56,35.52,0l.19,2.63c.75.56,1.5.94,2.25,1.5l-2.44.94C35.33,6,35.14,6.77,35,7.71Z" fill="#fbb03b" fill-rule="evenodd"/><path d="M28.38,9a20.9,20.9,0,0,0-2.07-1.69l-2.26.94c.19-.75.38-1.69.57-2.63L22.93,3.57c.94,0,1.88-.19,2.82-.19l1.69-2.25L28,4a9,9,0,0,1,2.44.94A13.78,13.78,0,0,0,28.19,6.2Z" fill="#fbb03b" fill-rule="evenodd"/><path d="M67.65,53.56c.76-.19,1.7-.19,2.45-.38a9.56,9.56,0,0,0,.75-2.44c.56.75.94,1.5,1.5,2.26H75l-1.69,2.25.57,2.82-2.45-1.13A9.6,9.6,0,0,1,69,58.07a11,11,0,0,0,.38-2.63Z" fill="#fbb03b" fill-rule="evenodd"/><path d="M69.91,47.17c.75-.38,1.5-.56,2.44-.94.19-.75.19-1.69.38-2.44a17.53,17.53,0,0,1,1.88,1.88c.94-.19,1.69-.38,2.63-.57a10.26,10.26,0,0,1-1.32,2.45c.38.75.75,1.69,1.13,2.63l-2.82-.76c-.75.57-1.31,1.13-2.07,1.7V48.49Z" fill="#fbb03b" fill-rule="evenodd"/><path d="M70.66,40.4a14.17,14.17,0,0,0,2.07-1.5l-.19-2.44c.75.37,1.5.94,2.26,1.31l2.44-1.12-.75,2.81A17,17,0,0,1,78,41.72l-2.63-.19a19.8,19.8,0,0,1-1.69,2.07c-.19-.94-.38-1.69-.57-2.44Z" fill="#fbb03b" fill-rule="evenodd"/><path d="M70.1,33.64a17.8,17.8,0,0,0,1.69-1.88A12.65,12.65,0,0,0,71,29.32a9,9,0,0,1,2.44.94l2.25-1.51-.18,2.82c.75.57,1.31,1.32,2.06,1.88L75,33.83c-.37.75-.75,1.69-1.12,2.44L72.73,34Z" fill="#fbb03b" fill-rule="evenodd"/><path d="M68,27.06c.38-.75.94-1.5,1.32-2.25l-1.13-2.26a12.55,12.55,0,0,1,2.63.38,22.93,22.93,0,0,0,1.88-2.07,14.35,14.35,0,0,1,.37,2.82,16.47,16.47,0,0,1,2.45,1.5l-2.45.94a13,13,0,0,1-.75,2.63l-1.69-1.88C69.72,26.87,68.78,27.06,68,27.06Z" fill="#fbb03b" fill-rule="evenodd"/><path d="M64.65,21.24c.37-.76.56-1.51.94-2.45a18.86,18.86,0,0,0-1.69-1.88,12.93,12.93,0,0,1,2.63-.18l1.31-2.26a10.74,10.74,0,0,1,.94,2.63c.94.38,1.88.57,2.63.94l-2.06,1.32A11.42,11.42,0,0,1,69.16,22a17.8,17.8,0,0,1-1.88-1.69Z" fill="#fbb03b" fill-rule="evenodd"/><path d="M60.14,16.16c.18-.75.18-1.69.37-2.63A19.34,19.34,0,0,0,58.45,12c.75-.19,1.69-.57,2.44-.75l.94-2.45a15.51,15.51,0,0,1,1.5,2.26c.94.19,1.88.19,2.82.37l-1.88,1.88A14.61,14.61,0,0,1,64.65,16c-.75-.37-1.51-.94-2.26-1.31Z" fill="#fbb03b" fill-rule="evenodd"/><path d="M54.69,12A12.27,12.27,0,0,0,54.5,9.4L52.24,8.27C53,7.89,53.75,7.33,54.5,7l.37-2.63A19.46,19.46,0,0,0,56.94,6.2c.94,0,1.88-.19,2.82-.19L58.07,8.46A12.88,12.88,0,0,1,59,10.9a12,12,0,0,0-2.44-.75Z" fill="#fbb03b" fill-rule="evenodd"/><path d="M48.49,9.21a9.18,9.18,0,0,0-.76-2.44L45.29,6.2a19.8,19.8,0,0,1,2.07-1.69l-.19-2.63,2.44,1.5c.94-.19,1.69-.56,2.63-.75L51.3,5.07a16.17,16.17,0,0,1,1.51,2.26,12.27,12.27,0,0,0-2.63-.19Z" fill="#fbb03b" fill-rule="evenodd"/><path d="M41.91,7.71,40.78,5.45H38.34C38.9,4.7,39.46,4.13,40,3.38L39.28.75l2.63.94A15.29,15.29,0,0,1,44.35.38L44,3a8.55,8.55,0,0,1,1.87,1.88c-.94.18-1.69.18-2.63.37Z" fill="#fbb03b" fill-rule="evenodd"/><path d="M66.71,58.82A34.44,34.44,0,0,1,3.19,40.22,34.12,34.12,0,0,1,22,9.58L19.73,7.14A37.73,37.73,0,1,0,69.16,61.26Z" fill="#3b66af" fill-rule="evenodd"/></svg>